HIERARCHY
ROOT Hips
{
	OFFSET 10.524628 107.211601 -0.883273
	CHANNELS 6 Xposition Yposition Zposition Xrotation Yrotation Zrotation
	JOINT Chest
	{
		OFFSET -1.450688 13.545708 -0.750668
		CHANNELS 3 Xrotation Yrotation Zrotation
		JOINT Chest2
		{
			OFFSET -5.291496 20.758728 0.376906
			CHANNELS 3 Xrotation Yrotation Zrotation
			JOINT Chest3
			{
				OFFSET -2.675528 14.460358 -2.561125
				CHANNELS 3 Xrotation Yrotation Zrotation
				JOINT Neck
				{
					OFFSET -3.386437 16.911530 -1.071522
					CHANNELS 3 Xrotation Yrotation Zrotation
					JOINT Head
					{
						OFFSET -1.211153 10.297409 1.524544
						CHANNELS 3 Xrotation Yrotation Zrotation
						End Site
						{
							OFFSET -1.221855 10.306503 1.452820
						}
					}
				}
				JOINT LeftCollar
				{
					OFFSET 1.999167 14.019165 1.127182
					CHANNELS 3 Xrotation Yrotation Zrotation
					JOINT LeftUpArm
					{
						OFFSET 14.438058 4.563171 -8.900517
						CHANNELS 3 Xrotation Yrotation Zrotation
						JOINT LeftLowArm
						{
							OFFSET 25.401798 20.401474 8.846234
							CHANNELS 3 Xrotation Yrotation Zrotation
							JOINT LeftHand
							{
								OFFSET 21.163437 19.337219 8.895360
								CHANNELS 3 Xrotation Yrotation Zrotation
								End Site
								{
									OFFSET 4.625381 4.226288 1.944122
								}
							}
						}
					}
				}
				JOINT RightCollar
				{
					OFFSET -6.097075 12.507950 2.861011
					CHANNELS 3 Xrotation Yrotation Zrotation
					JOINT RightUpArm
					{
						OFFSET -16.577484 -5.801575 -0.158259
						CHANNELS 3 Xrotation Yrotation Zrotation
						JOINT RightLowArm
						{
							OFFSET -7.296232 -14.896988 29.403728
							CHANNELS 3 Xrotation Yrotation Zrotation
							JOINT RightHand
							{
								OFFSET 13.434632 22.711395 14.305880
								CHANNELS 3 Xrotation Yrotation Zrotation
								End Site
								{
									OFFSET 2.936255 4.963821 3.126667
								}
							}
						}
					}
				}
			}
		}
	}
	JOINT LeftUpLeg
	{
		OFFSET 9.960354 1.078545 0.217274
		CHANNELS 3 Xrotation Yrotation Zrotation
		JOINT LeftLowLeg
		{
			OFFSET 14.089401 -45.100525 3.379733
			CHANNELS 3 Xrotation Yrotation Zrotation
			JOINT LeftFoot
			{
				OFFSET 8.304173 -42.270096 -12.035327
				CHANNELS 3 Xrotation Yrotation Zrotation
				JOINT LeftToe
				{
					OFFSET 0.990620 -19.151154 13.849619
					CHANNELS 3 Xrotation Yrotation Zrotation
					End Site
					{
						OFFSET -1.925560 -6.237263 22.736485
					}
				}
			}
		}
	}
	JOINT RightUpLeg
	{
		OFFSET -9.960338 -1.078743 -0.217263
		CHANNELS 3 Xrotation Yrotation Zrotation
		JOINT RightLowLeg
		{
			OFFSET -20.490025 -42.635036 2.534603
			CHANNELS 3 Xrotation Yrotation Zrotation
			JOINT RightFoot
			{
				OFFSET -16.218351 -36.021652 -20.975821
				CHANNELS 3 Xrotation Yrotation Zrotation
				JOINT RightToe
				{
					OFFSET -9.126823 -20.206837 8.242661
					CHANNELS 3 Xrotation Yrotation Zrotation
					End Site
					{
						OFFSET -7.170998 -9.900604 20.251194
					}
				}
			}
		}
	}
}
MOTION
Frames: 16
Frame Time: 0.033333
41.559731 102.183754 -1.714808 12.236195 -0.302253 5.831889 -7.885962 -1.201651 1.690855 -1.553024 1.043946 -2.251212 2.571685 -0.150031 -0.972550 -15.238205 11.924624 -8.577143 0.000001 0.000001 0.000001 -0.834511 2.031030 -3.399066 5.067836 -0.736773 16.440691 -17.571879 3.207830 39.780794 0.000001 0.000002 -0.000003 1.869971 1.171240 1.512653 7.166656 25.414183 19.450731 50.390001 39.887734 -41.333569 0.000001 0.000003 -0.000003 -2.712871 -1.897554 -16.889502 -7.455417 1.324907 -2.670956 -7.060883 4.074500 -7.758934 -0.000000 0.000001 -0.000003 -7.001769 1.595156 -16.387067 -11.288230 3.959441 -4.908854 11.648168 -16.900888 -8.029595 0.000000 -0.000003 -0.000004 
41.615868 102.168442 -1.736912 12.203407 -0.002420 5.698414 -7.802202 -1.217112 1.735700 -1.733284 1.012315 -2.203258 2.710593 -0.195030 -1.014936 -14.866171 11.843014 -8.551551 -0.000000 -0.000001 -0.000000 -0.241629 1.841811 -3.302577 4.967436 0.208703 16.199568 -17.532233 3.578392 40.358075 0.000000 0.000001 -0.000001 2.143695 0.818608 1.440348 7.263881 25.893831 19.182139 48.395985 39.794793 -40.239605 0.000002 0.000003 0.000003 -2.610152 -1.875713 -16.762502 -7.419272 1.208693 -2.669280 -7.136843 3.919267 -7.985606 -0.000000 0.000001 0.000000 -6.755462 1.541599 -16.317641 -11.082596 3.901948 -4.800230 11.351291 -16.733627 -8.086396 0.000001 0.000001 -0.000003 
41.663406 102.159233 -1.758774 11.924514 -0.108314 5.681540 -7.790159 -1.201246 1.616087 -1.793530 1.047545 -2.271082 2.690561 -0.228829 -0.857272 -14.776416 11.934276 -8.585676 0.000000 -0.000004 0.000000 -0.651718 2.262655 -3.299707 5.461811 -0.489233 16.116508 -17.540899 3.449109 40.822647 0.000001 0.000001 -0.000005 2.179364 1.011212 1.611425 7.841934 25.527053 19.352578 49.714823 39.887202 -41.307645 0.000002 0.000003 -0.000003 -2.324221 -1.837351 -16.727598 -7.483357 1.353615 -2.631452 -7.035135 3.590104 -7.997866 -0.000000 -0.000000 -0.000001 -6.631286 1.462261 -16.297654 -11.006728 3.838384 -4.850345 11.504387 -16.421424 -7.794760 0.000001 0.000000 -0.000003 
41.710648 102.150520 -1.784670 11.959060 -0.133770 5.654877 -7.280939 -1.140297 1.625236 -2.370539 0.928304 -2.189684 2.924551 -0.297478 -0.913319 -14.959130 12.070197 -8.589751 0.000001 -0.000004 -0.000001 -0.753888 2.494957 -3.366289 5.642335 -0.676334 16.468230 -18.027333 3.892033 40.624121 0.000001 -0.000000 -0.000002 2.213443 1.312571 1.332555 6.911027 25.516200 18.652260 47.685707 39.543319 -39.788222 -0.000002 0.000005 0.000001 -2.423017 -1.811890 -16.659952 -7.529519 1.283798 -2.726940 -7.013110 3.791948 -7.842459 0.000001 -0.000000 0.000002 -6.795906 1.520561 -16.239898 -10.981474 3.908466 -4.941620 11.403016 -16.329712 -7.774079 -0.000001 0.000000 -0.000001 
41.755234 102.144905 -1.812005 11.954197 -0.087154 5.649883 -7.710855 -1.208667 1.646799 -2.040462 0.969686 -2.126460 3.012428 -0.589208 -1.031841 -15.089069 12.180355 -8.718480 0.000000 -0.000002 -0.000001 -0.700867 2.417868 -3.454904 5.490233 -0.321919 16.485420 -18.623692 4.211445 40.789398 0.000002 -0.000001 -0.000000 2.277066 1.385410 1.435085 7.214866 25.594508 18.751265 48.075366 39.797381 -40.220532 -0.000000 0.000000 -0.000000 -2.459147 -1.877434 -16.704739 -7.782832 1.361888 -2.650816 -6.939816 3.746484 -7.647639 -0.000000 -0.000001 0.000000 -6.861059 1.575119 -16.266060 -10.915158 3.762516 -4.925583 11.482491 -16.690605 -8.001047 -0.000002 0.000000 0.000003 
41.792633 102.138992 -1.836067 11.864425 -0.241085 5.751941 -7.524574 -1.168795 1.660325 -2.095662 0.934239 -2.125465 2.843286 -0.489356 -1.217891 -15.098738 11.980918 -8.625311 0.000001 -0.000003 0.000000 -0.458659 1.851301 -3.611592 5.505811 -0.626857 16.818070 -18.333939 3.772386 40.846447 0.000000 0.000002 -0.000005 2.244507 1.481572 1.709035 7.612159 25.494453 19.159413 50.471215 40.146247 -41.991368 -0.000000 0.000007 0.000003 -2.553848 -1.865609 -16.779060 -7.832231 1.379048 -2.730509 -6.849422 3.717460 -7.521308 0.000001 -0.000000 -0.000001 -7.091109 1.633824 -16.304633 -10.564586 3.649153 -5.008651 11.543619 -16.495072 -7.881464 0.000002 -0.000002 -0.000003 
41.819973 102.123169 -1.856023 12.070279 -0.078760 5.712424 -7.323992 -1.134177 1.658347 -2.293632 0.932917 -2.141740 2.885434 -0.422374 -1.175431 -15.020161 11.886187 -8.492631 0.000001 -0.000002 0.000000 -0.673305 2.275312 -3.630340 5.543477 -0.749586 16.891621 -17.804387 3.407445 40.569357 0.000002 0.000002 -0.000001 2.227137 1.293794 1.654840 7.801967 25.755160 19.513232 52.375250 40.708515 -43.550693 0.000003 0.000002 -0.000001 -2.734744 -1.909782 -16.719709 -7.684648 1.254555 -2.825996 -7.005048 3.773417 -7.777295 -0.000000 -0.000001 0.000002 -7.157149 1.680970 -16.227766 -10.513077 3.778258 -5.039085 11.369093 -16.520008 -7.907786 -0.000004 0.000002 0.000003 
41.849930 102.114670 -1.880877 12.359541 -0.237089 5.853185 -7.580183 -1.164742 1.635838 -2.124793 0.981852 -2.218464 2.684667 -0.177949 -1.166947 -14.761499 11.762654 -8.468604 0.000001 0.000002 0.000000 -0.647241 2.077850 -3.866304 5.530659 -0.758718 17.091628 -17.478557 3.090083 41.013585 0.000003 0.000001 -0.000001 2.180050 1.057287 1.748130 7.151362 25.760572 19.154065 52.511143 40.065289 -43.229579 0.000001 0.000002 0.000002 -3.110739 -1.913983 -16.840815 -7.679562 1.277716 -2.829823 -7.018444 3.948899 -7.722401 0.000001 0.000001 -0.000002 -7.447889 1.757646 -16.285539 -10.567964 3.751743 -5.024970 11.349267 -16.673651 -8.022333 0.000003 -0.000001 -0.000001 
41.875805 102.109085 -1.906754 12.444183 -0.095754 5.893195 -7.721653 -1.207144 1.740135 -2.046708 0.982306 -2.272684 2.735647 -0.211971 -1.115574 -15.270324 12.036792 -8.665468 0.000001 -0.000003 -0.000000 -0.759961 2.299346 -3.926765 5.545870 -0.879909 17.059118 -17.571927 3.633619 40.150239 0.000001 0.000002 0.000002 2.091915 1.515107 1.356120 6.442593 25.619056 18.654828 50.339170 39.703729 -41.513282 -0.000001 0.000005 -0.000003 -3.166548 -1.849656 -16.899577 -7.718320 1.196636 -2.827667 -7.011488 3.923419 -7.793585 -0.000001 0.000000 0.000002 -7.340727 1.673501 -16.270445 -10.513156 3.665455 -4.858387 11.384725 -17.130302 -8.286107 0.000000 0.000005 0.000005 
41.892761 102.102921 -1.929366 12.613107 -0.008094 5.882112 -8.031621 -1.254108 1.801497 -2.145323 0.946981 -2.257201 2.769604 -0.412726 -1.163622 -15.419403 12.062133 -8.706306 0.000001 -0.000001 0.000000 -0.676932 2.030531 -3.790480 5.353184 -1.025215 16.792420 -17.364378 3.391366 39.887075 0.000002 -0.000001 -0.000002 1.965308 1.489340 1.345480 6.727260 25.531476 19.220579 52.311186 39.777741 -42.737143 0.000001 0.000003 0.000001 -3.175036 -1.864561 -16.820615 -7.916383 1.210689 -2.874632 -6.913094 3.893634 -7.673718 -0.000000 -0.000001 0.000002 -7.005568 1.531553 -16.125419 -11.158469 3.844542 -4.749751 10.658473 -17.220133 -8.553477 -0.000002 -0.000001 -0.000003 
41.898323 102.099213 -1.953866 12.482487 -0.225677 5.947060 -7.562206 -1.192952 1.885379 -1.625199 1.053208 -2.352207 2.429630 -0.564934 -1.093292 -15.343844 12.101601 -8.780627 0.000001 0.000000 -0.000000 -0.375096 1.681812 -4.010604 5.082164 -0.638881 16.935642 -18.242568 4.040272 39.891150 0.000001 0.000002 -0.000001 2.010932 1.682925 1.467863 7.472342 25.544067 19.737486 52.387042 39.947611 -42.958526 0.000003 0.000007 0.000003 -3.105359 -1.796259 -16.780031 -7.632212 1.268894 -2.905430 -7.027977 3.729732 -7.892799 -0.000000 -0.000000 0.000001 -7.463874 1.650207 -15.960450 -10.765090 3.583601 -4.869775 10.610541 -16.771145 -8.426095 -0.000003 0.000001 0.000003 
41.875046 102.099663 -1.966163 11.607979 0.557652 5.864158 -7.054099 -1.134883 1.976388 -0.286936 1.181283 -1.931959 1.375817 -0.805573 -1.865257 -15.247639 11.408650 -8.447123 -0.000000 -0.000003 0.000000 0.560177 0.148554 -3.364046 4.423717 1.213284 16.535055 -17.874410 6.677711 36.101450 0.000001 0.000002 -0.000007 2.064042 0.594331 1.775168 8.306862 25.999503 19.799139 49.189581 39.624789 -40.924677 -0.000000 0.000006 -0.000000 -2.626832 -1.934210 -16.623487 -7.130189 2.132837 -2.742172 -7.130414 2.742183 -8.109951 0.000001 -0.000001 0.000001 -6.421817 1.373754 -15.774564 -10.287487 2.683831 -4.955507 9.700306 -16.257991 -8.556165 0.000001 0.000002 -0.000001 
41.841415 102.090103 -1.983409 12.201526 0.087077 6.011483 -7.423044 -1.181336 1.887122 -1.040842 1.087553 -2.119282 1.935536 -0.915984 -1.417307 -15.053329 11.932398 -8.733507 0.000000 0.000001 0.000001 -0.274528 1.450585 -3.642239 5.356946 -0.509156 16.579871 -17.747318 5.210546 37.949279 0.000000 0.000001 0.000000 2.078210 1.311577 1.778960 8.282087 25.998584 20.304730 51.408577 39.087206 -41.842613 0.000001 0.000005 0.000006 -2.681937 -1.806926 -16.633700 -7.664682 1.654053 -2.821676 -6.959755 3.195080 -7.872955 0.000002 -0.000000 0.000001 -7.077401 1.548733 -15.590481 -9.977274 2.997031 -4.992751 10.239302 -16.664483 -8.503922 -0.000003 0.000001 -0.000006 
41.766678 102.097244 -1.994083 11.292686 0.330941 5.983050 -6.618855 -1.014503 1.759217 -1.974177 0.858652 -1.792422 3.012556 -0.585715 -1.910265 -14.962161 11.306587 -8.543546 -0.000001 0.000000 -0.000000 0.324092 -0.045097 -3.262392 4.239297 0.917559 16.052980 -18.027798 6.351355 36.079218 -0.000001 0.000001 -0.000001 1.963328 0.442704 2.410102 8.832042 25.754847 20.508661 50.915000 39.164749 -41.567886 -0.000003 0.000002 0.000003 -2.410539 -1.856092 -16.466749 -6.996424 2.205099 -2.542233 -7.101883 2.706799 -8.169652 0.000000 -0.000000 0.000001 -6.149811 1.243459 -15.304226 -9.609388 2.471959 -5.053353 9.964761 -16.063305 -8.239477 -0.000002 -0.000001 -0.000000 
41.645752 102.110138 -2.001241 11.816470 0.896909 6.100424 -7.215058 -1.078544 1.455911 -2.028641 0.929525 -1.823401 3.340229 -0.979252 -1.916743 -16.271845 11.612874 -8.304305 0.000001 -0.000000 0.000000 0.473602 -0.823242 -3.035673 3.645631 1.447494 15.822625 -16.879312 6.042431 34.947056 0.000002 -0.000001 -0.000000 1.714156 0.905701 2.297726 8.643669 25.358534 20.343495 49.723637 39.176138 -40.562994 0.000003 0.000003 0.000006 -3.154218 -1.941281 -16.298863 -6.815947 2.425135 -2.409267 -6.909134 2.083173 -8.040494 -0.000002 -0.000000 0.000003 -5.886910 1.142684 -14.999507 -9.995516 2.288041 -4.659390 8.473213 -16.714352 -8.950417 0.000001 -0.000001 -0.000003 
41.495792 102.128952 -2.006201 11.460134 -0.069169 6.409254 -6.740940 -0.962397 0.917379 -1.832133 1.076234 -1.964102 2.977753 -0.754459 -1.596609 -16.566067 11.774758 -8.296623 0.000001 -0.000000 0.000000 0.380510 -0.679611 -2.729990 3.523231 1.901503 15.320295 -15.922899 5.950846 34.248935 -0.000001 0.000001 -0.000005 1.775154 1.269962 2.081342 7.598947 25.307560 19.404497 49.179193 38.507531 -39.842904 -0.000003 0.000005 0.000001 -2.876743 -1.994801 -16.165359 -6.847569 2.372599 -2.626889 -7.232962 3.191912 -8.080022 0.000002 -0.000001 -0.000001 -6.200523 1.345465 -14.728570 -10.033808 2.479987 -4.647293 7.781395 -16.295158 -8.774689 0.000001 -0.000003 -0.000000 
